<?xml version="1.0" encoding="utf-8"?>
<!DOCTYPE svg PUBLIC "-//W3C//DTD SVG 1.1//EN" "http://www.w3.org/Graphics/SVG/1.1/DTD/svg11.dtd">
<svg id="SvgjsSvg1043" width="100%" height="100%" xmlns="http://www.w3.org/2000/svg" version="1.1" xmlns:xlink="http://www.w3.org/1999/xlink" xmlns:svgjs="http://svgjs.com/svgjs" viewBox="0 0 499.1111246744792 290.44443766276044"><defs id="SvgjsDefs1044"></defs><g id="SvgjsG1045"><circle id="SvgjsCircle1046" r="0.3135748133156432" cx="220.91191501205353" cy="126.87340269884403" fill="#ffffff"></circle><circle id="SvgjsCircle1047" r="0.16415320975112296" cx="5.652311183463779" cy="21.76030964576607" fill="#ffffff"></circle><circle id="SvgjsCircle1048" r="0.6306647873926702" cx="261.0909812778228" cy="223.42648318021332" fill="#ffffff"></circle><circle id="SvgjsCircle1049" r="0.21376967893916432" cx="369.07422734452064" cy="197.71720767199628" fill="#ffffff"></circle><circle id="SvgjsCircle1050" r="0.48936554637991786" cx="453.53583297269296" cy="207.203005077693" fill="#ffffff"></circle><circle id="SvgjsCircle1051" r="0.4327984907042807" cx="324.0057430050008" cy="142.80449888873886" fill="#ffffff"></circle><circle id="SvgjsCircle1052" r="0.7916535221385442" cx="370.1536263095048" cy="15.108306833303454" fill="#ffffff"></circle><circle id="SvgjsCircle1053" r="0.4799486469159109" cx="66.49302574119818" cy="12.507376717271573" fill="#ffffff"></circle><circle id="SvgjsCircle1054" r="0.06767131500661447" cx="176.31120290779964" cy="270.99131158700203" fill="#ffffff"></circle><circle id="SvgjsCircle1055" r="0.17626728178285894" cx="445.08769242956566" cy="80.172430298024" fill="#ffffff"></circle><circle id="SvgjsCircle1056" r="0.3918420440630019" cx="274.3669234420104" cy="90.96468828402989" fill="#ffffff"></circle><circle id="SvgjsCircle1057" r="0.8647679563111477" cx="19.36410302132589" cy="110.05409398546206" fill="#ffffff"></circle><circle id="SvgjsCircle1058" r="0.6488820815358334" cx="334.5439200901534" cy="119.45984911496987" fill="#ffffff"></circle><circle id="SvgjsCircle1059" r="0.08434893270563845" cx="128.00414372888105" cy="71.0409331490722" fill="#ffffff"></circle><circle id="SvgjsCircle1060" r="0.8456976691685586" cx="341.44216997130866" cy="137.50329231759284" fill="#ffffff"></circle><circle id="SvgjsCircle1061" r="0.9034443690162016" cx="31.35463832851497" cy="64.81992261082722" fill="#ffffff"></circle><circle id="SvgjsCircle1062" r="0.4195671704747535" cx="127.93676870355938" cy="213.75592913885322" fill="#ffffff"></circle><circle id="SvgjsCircle1063" r="0.2508235997950146" cx="145.182838891337" cy="102.13359780447885" fill="#ffffff"></circle><circle id="SvgjsCircle1064" r="0.134017612864004" cx="469.54964921778446" cy="185.71032209601515" fill="#ffffff"></circle><circle id="SvgjsCircle1065" r="0.876201007450769" cx="424.404225275658" cy="7.339399589078161" fill="#ffffff"></circle><circle id="SvgjsCircle1066" r="0.9932860452855595" cx="112.06174860035958" cy="71.17154954368044" fill="#ffffff"></circle><circle id="SvgjsCircle1067" r="0.7195111439613562" cx="380.5886253271878" cy="158.38238081995823" fill="#ffffff"></circle><circle id="SvgjsCircle1068" r="0.46831189734624473" cx="311.6188016948262" cy="166.4995007415903" fill="#ffffff"></circle><circle id="SvgjsCircle1069" r="0.5161329992560821" cx="16.047335983111083" cy="46.58069678685027" fill="#ffffff"></circle><circle id="SvgjsCircle1070" r="0.447154422173608" cx="93.99900507903403" cy="60.81866076334255" fill="#ffffff"></circle><circle id="SvgjsCircle1071" r="0.26311611458301615" cx="414.6452512388543" cy="22.272746158305747" fill="#ffffff"></circle><circle id="SvgjsCircle1072" r="0.40458652005298434" cx="472.726125258087" cy="250.95578588478304" fill="#ffffff"></circle><circle id="SvgjsCircle1073" r="0.115831225455269" cx="361.89862533181855" cy="247.39840401785008" fill="#ffffff"></circle><circle id="SvgjsCircle1074" r="0.10272157980996634" cx="238.00218465665918" cy="262.9651085493647" fill="#ffffff"></circle><circle id="SvgjsCircle1075" r="0.8485574983740571" cx="252.8275113999731" cy="50.652689311788066" fill="#ffffff"></circle><circle id="SvgjsCircle1076" r="0.5851784921569604" cx="252.45350950307352" cy="286.2299692462659" fill="#ffffff"></circle><circle id="SvgjsCircle1077" r="0.2262411310086473" cx="376.69370967814586" cy="244.20452470295018" fill="#ffffff"></circle><circle id="SvgjsCircle1078" r="0.7543262622827872" cx="424.1521056927714" cy="40.76767782892905" fill="#ffffff"></circle><circle id="SvgjsCircle1079" r="0.9978608832309391" cx="50.41934787450082" cy="161.27127543333813" fill="#ffffff"></circle><circle id="SvgjsCircle1080" r="0.6421579562639939" cx="233.13306610632588" cy="221.82696806804597" fill="#ffffff"></circle><circle id="SvgjsCircle1081" r="0.10916781670687169" cx="491.1976544045597" cy="134.71634061384032" fill="#ffffff"></circle><circle id="SvgjsCircle1082" r="0.9416325027890652" cx="273.04678908252555" cy="69.14336849286876" fill="#ffffff"></circle><circle id="SvgjsCircle1083" r="0.7573057805544725" cx="294.68811300961914" cy="88.02667281325141" fill="#ffffff"></circle><circle id="SvgjsCircle1084" r="0.09865911986919618" cx="324.3017214606405" cy="8.226697618060012" fill="#ffffff"></circle><circle id="SvgjsCircle1085" r="0.9279378966265062" cx="201.00627441005565" cy="228.95589796578773" fill="#ffffff"></circle><circle id="SvgjsCircle1086" r="0.1551037658832456" cx="219.11408354476578" cy="37.398081356424576" fill="#ffffff"></circle><circle id="SvgjsCircle1087" r="0.5849340330771802" cx="296.0897293780262" cy="149.66041252869348" fill="#ffffff"></circle><circle id="SvgjsCircle1088" r="0.5064780374991925" cx="491.5319450563672" cy="139.06860525267206" fill="#ffffff"></circle><circle id="SvgjsCircle1089" r="0.7896173611967452" cx="33.587644091623304" cy="192.50169747195835" fill="#ffffff"></circle><circle id="SvgjsCircle1090" r="0.22120169570569298" cx="96.6695939455993" cy="131.69904024274274" fill="#ffffff"></circle><circle id="SvgjsCircle1091" r="0.14538701132646387" cx="406.1489796683856" cy="128.20730099381376" fill="#ffffff"></circle><circle id="SvgjsCircle1092" r="0.0541776478828388" cx="479.9492712673067" cy="273.09298781395705" fill="#ffffff"></circle><circle id="SvgjsCircle1093" r="0.6346045839281592" cx="155.3933313083613" cy="182.76896135811447" fill="#ffffff"></circle><circle id="SvgjsCircle1094" r="0.6890787380349784" cx="449.800774101052" cy="148.35444142761355" fill="#ffffff"></circle><circle id="SvgjsCircle1095" r="0.1414947310578122" cx="38.4214231222899" cy="101.29739324364587" fill="#ffffff"></circle><circle id="SvgjsCircle1096" r="0.8020961562837443" cx="198.19051420594226" cy="47.232618294696785" fill="#ffffff"></circle><circle id="SvgjsCircle1097" r="0.6265824646383586" cx="205.63256988736248" cy="4.866262258147594" fill="#ffffff"></circle><circle id="SvgjsCircle1098" r="0.18340506404735146" cx="4.158334562187473" cy="283.3012751096511" fill="#ffffff"></circle><circle id="SvgjsCircle1099" r="0.5233433913493512" cx="447.22970588686525" cy="175.5279589786436" fill="#ffffff"></circle><circle id="SvgjsCircle1100" r="0.788711557101703" cx="164.4265348287791" cy="187.65805510988787" fill="#ffffff"></circle><circle id="SvgjsCircle1101" r="0.170366971852074" cx="360.35620005867065" cy="159.86762077467537" fill="#ffffff"></circle><circle id="SvgjsCircle1102" r="0.5956707416999416" cx="114.98409307743336" cy="242.39130845206768" fill="#ffffff"></circle><circle id="SvgjsCircle1103" r="0.21808696491472562" cx="369.5215544961265" cy="157.03080121635196" fill="#ffffff"></circle><circle id="SvgjsCircle1104" r="0.9261976877771589" cx="217.3795999696499" cy="60.09115570948164" fill="#ffffff"></circle><circle id="SvgjsCircle1105" r="0.831647245049448" cx="368.73707159675405" cy="257.62523226758117" fill="#ffffff"></circle><circle id="SvgjsCircle1106" r="0.8288729300992905" cx="445.0020002958429" cy="168.2488124576505" fill="#ffffff"></circle><circle id="SvgjsCircle1107" r="0.5262788054194928" cx="415.3041467191044" cy="96.09954585083632" fill="#ffffff"></circle><circle id="SvgjsCircle1108" r="0.8192591967728988" cx="327.763238112825" cy="256.04029971144246" fill="#ffffff"></circle><circle id="SvgjsCircle1109" r="0.8750699770219985" cx="132.66473613379975" cy="48.79646341291697" fill="#ffffff"></circle><circle id="SvgjsCircle1110" r="0.4964550622236921" cx="136.18827707057736" cy="236.744228563939" fill="#ffffff"></circle><circle id="SvgjsCircle1111" r="0.9213985204246341" cx="371.8754653180766" cy="237.48873929598543" fill="#ffffff"></circle><circle id="SvgjsCircle1112" r="0.9731348317592244" cx="468.32226917027333" cy="167.55173346725124" fill="#ffffff"></circle><circle id="SvgjsCircle1113" r="0.11595730447451988" cx="486.60854143376395" cy="116.72114465503134" fill="#ffffff"></circle><circle id="SvgjsCircle1114" r="0.9619296223438836" cx="186.61479644415257" cy="191.13804164815582" fill="#ffffff"></circle><circle id="SvgjsCircle1115" r="0.36683516376121794" cx="98.51548292721209" cy="137.3847409905362" fill="#ffffff"></circle><circle id="SvgjsCircle1116" r="0.3126484982740974" cx="285.7698085544831" cy="117.30332957062393" fill="#ffffff"></circle><circle id="SvgjsCircle1117" r="0.8841864581315806" cx="36.96623686558613" cy="17.783557802653824" fill="#ffffff"></circle><circle id="SvgjsCircle1118" r="0.09181674761473965" cx="342.2721279403521" cy="6.889683177014314" fill="#ffffff"></circle><circle id="SvgjsCircle1119" r="0.6975522523842502" cx="356.7575975972928" cy="10.577563706035974" fill="#ffffff"></circle><circle id="SvgjsCircle1120" r="0.2814828688633001" cx="82.3487690036502" cy="10.477343632483747" fill="#ffffff"></circle><circle id="SvgjsCircle1121" r="0.7780690096356717" cx="338.09525406035056" cy="228.23158314921025" fill="#ffffff"></circle><circle id="SvgjsCircle1122" r="0.056468584256965985" cx="183.42273131878537" cy="6.778994466033059" fill="#ffffff"></circle><circle id="SvgjsCircle1123" r="0.6161918066755738" cx="207.5226868835195" cy="247.84519592584917" fill="#ffffff"></circle><circle id="SvgjsCircle1124" r="0.1452880129570895" cx="342.75136588208903" cy="176.02576003105045" fill="#ffffff"></circle><circle id="SvgjsCircle1125" r="0.32102593950913594" cx="17.14638765319593" cy="39.80078946250375" fill="#ffffff"></circle><circle id="SvgjsCircle1126" r="0.3557247333060814" cx="203.52303802797044" cy="71.86328969569645" fill="#ffffff"></circle><circle id="SvgjsCircle1127" r="0.2033272562344467" cx="346.63284114426597" cy="187.53921489864746" fill="#ffffff"></circle><circle id="SvgjsCircle1128" r="0.0790078788501567" cx="57.249376841488356" cy="273.5047632407467" fill="#ffffff"></circle><circle id="SvgjsCircle1129" r="0.2802609800776004" cx="471.6597569483552" cy="96.53614516204892" fill="#ffffff"></circle><circle id="SvgjsCircle1130" r="0.8670302445499798" cx="374.9578496511297" cy="275.06706166528005" fill="#ffffff"></circle><circle id="SvgjsCircle1131" r="0.7047693974707353" cx="82.6323604322453" cy="213.98014820360956" fill="#ffffff"></circle><circle id="SvgjsCircle1132" r="0.7408309704968171" cx="36.50389263372763" cy="103.61862682383358" fill="#ffffff"></circle><circle id="SvgjsCircle1133" r="0.9094282807467852" cx="180.96966030745773" cy="255.55159205831382" fill="#ffffff"></circle><circle id="SvgjsCircle1134" r="0.34475625845034713" cx="368.2836548311999" cy="202.1217463228674" fill="#ffffff"></circle><circle id="SvgjsCircle1135" r="0.5944766280015993" cx="191.0248702198398" cy="87.14298002059698" fill="#ffffff"></circle><circle id="SvgjsCircle1136" r="0.8007720087328789" cx="418.66049627151136" cy="67.08958752949205" fill="#ffffff"></circle><circle id="SvgjsCircle1137" r="0.50124175883125" cx="105.73672243542303" cy="220.259780914999" fill="#ffffff"></circle><circle id="SvgjsCircle1138" r="0.2962524049679893" cx="101.89030050859472" cy="171.68570675252872" fill="#ffffff"></circle><circle id="SvgjsCircle1139" r="0.5046293746494066" cx="277.50267442773827" cy="257.45732472102304" fill="#ffffff"></circle><circle id="SvgjsCircle1140" r="0.7664309452356912" cx="256.4015704428439" cy="278.5651229179491" fill="#ffffff"></circle><circle id="SvgjsCircle1141" r="0.4823476201805765" cx="251.69872184181614" cy="122.47641111145042" fill="#ffffff"></circle><circle id="SvgjsCircle1142" r="0.4567337204152487" cx="400.14405596908284" cy="110.1176515041582" fill="#ffffff"></circle><circle id="SvgjsCircle1143" r="0.12912770488651082" cx="199.02400962456423" cy="126.81888495993377" fill="#ffffff"></circle><circle id="SvgjsCircle1144" r="0.576838569186715" cx="206.4670941439316" cy="92.91775303262371" fill="#ffffff"></circle><circle id="SvgjsCircle1145" r="0.5039753554237072" cx="305.4598516131634" cy="37.72334972956905" fill="#ffffff"></circle><circle id="SvgjsCircle1146" r="0.4557182864783094" cx="394.6584169897856" cy="59.99530938336254" fill="#ffffff"></circle><circle id="SvgjsCircle1147" r="0.7461733592450185" cx="137.32865163005695" cy="275.945014792525" fill="#ffffff"></circle><circle id="SvgjsCircle1148" r="0.6324033005284762" cx="108.9278289932512" cy="57.62037928268605" fill="#ffffff"></circle><circle id="SvgjsCircle1149" r="0.14472398795443822" cx="197.20114534609098" cy="201.83188177803584" fill="#ffffff"></circle><circle id="SvgjsCircle1150" r="0.967029083656621" cx="13.412777339120337" cy="251.29868726233155" fill="#ffffff"></circle><circle id="SvgjsCircle1151" r="0.4416277946770912" cx="165.75876982771456" cy="246.66485760394258" fill="#ffffff"></circle><circle id="SvgjsCircle1152" r="0.32130747348296385" cx="331.82117640581896" cy="123.65419490830863" fill="#ffffff"></circle><circle id="SvgjsCircle1153" r="0.1637253856266031" cx="251.85730380362313" cy="85.55631405013803" fill="#ffffff"></circle><circle id="SvgjsCircle1154" r="0.901082014139726" cx="236.30339957519803" cy="186.0432841587614" fill="#ffffff"></circle><circle id="SvgjsCircle1155" r="0.6126816766344596" cx="26.53508744837533" cy="180.9381969033328" fill="#ffffff"></circle><circle id="SvgjsCircle1156" r="0.09974368112800257" cx="459.7942195816003" cy="62.61290149958603" fill="#ffffff"></circle><circle id="SvgjsCircle1157" r="0.5150490410935287" cx="424.55419317691485" cy="76.90422878309452" fill="#ffffff"></circle><circle id="SvgjsCircle1158" r="0.814876168425289" cx="217.8786369118835" cy="43.333918208780425" fill="#ffffff"></circle><circle id="SvgjsCircle1159" r="0.9770356579999455" cx="137.1407657849233" cy="159.23509527641147" fill="#ffffff"></circle><circle id="SvgjsCircle1160" r="0.9625884072916678" cx="315.6069425219945" cy="15.918425476160944" fill="#ffffff"></circle><circle id="SvgjsCircle1161" r="0.8847163637375929" cx="35.736656326136874" cy="22.54427335442496" fill="#ffffff"></circle><circle id="SvgjsCircle1162" r="0.6868229953031881" cx="451.61554961146487" cy="13.661687563383373" fill="#ffffff"></circle><circle id="SvgjsCircle1163" r="0.7694867819385239" cx="238.74983115073553" cy="187.81953135921674" fill="#ffffff"></circle><circle id="SvgjsCircle1164" r="0.13010659530067056" cx="497.38220140705687" cy="165.97843122130783" fill="#ffffff"></circle><circle id="SvgjsCircle1165" r="0.5322846804986189" cx="235.68630743523133" cy="153.16203782098935" fill="#ffffff"></circle><circle id="SvgjsCircle1166" r="0.29999763789151246" cx="208.06721587916329" cy="172.16023797039182" fill="#ffffff"></circle><circle id="SvgjsCircle1167" r="0.38359480423538755" cx="392.0540386165412" cy="77.88497609602271" fill="#ffffff"></circle><circle id="SvgjsCircle1168" r="0.927821128034675" cx="482.80272913059343" cy="124.2242989820166" fill="#ffffff"></circle><circle id="SvgjsCircle1169" r="0.3240853398462383" cx="372.1726150422702" cy="69.81331466631887" fill="#ffffff"></circle><circle id="SvgjsCircle1170" r="0.2726041991598429" cx="302.66312138165324" cy="219.6665825356171" fill="#ffffff"></circle><circle id="SvgjsCircle1171" r="0.5461826974444225" cx="326.09368838275844" cy="218.97756286668047" fill="#ffffff"></circle><circle id="SvgjsCircle1172" r="0.9675033629399055" cx="105.04951391973485" cy="72.12018284265491" fill="#ffffff"></circle><circle id="SvgjsCircle1173" r="0.6794115464462109" cx="324.8144430092886" cy="144.8376976582108" fill="#ffffff"></circle><circle id="SvgjsCircle1174" r="0.9469732052354459" cx="72.73525767593605" cy="22.182609394938698" fill="#ffffff"></circle><circle id="SvgjsCircle1175" r="0.3925528438078" cx="15.332902877410994" cy="43.37805613552602" fill="#ffffff"></circle><circle id="SvgjsCircle1176" r="0.3605767388720905" cx="157.5195141042869" cy="277.2670402508222" fill="#ffffff"></circle><circle id="SvgjsCircle1177" r="0.6993301784755265" cx="141.34500243332397" cy="106.25227626870715" fill="#ffffff"></circle><circle id="SvgjsCircle1178" r="0.7741819026910419" cx="491.98522024532554" cy="202.28055405590143" fill="#ffffff"></circle><circle id="SvgjsCircle1179" r="0.6755361648395529" cx="30.32062527652377" cy="277.10525470372585" fill="#ffffff"></circle><circle id="SvgjsCircle1180" r="0.7676937214133843" cx="329.000447824432" cy="22.598321959989622" fill="#ffffff"></circle><circle id="SvgjsCircle1181" r="0.22080508223940104" cx="201.17226991656813" cy="149.81970433554957" fill="#ffffff"></circle><circle id="SvgjsCircle1182" r="0.950321386155423" cx="118.87860917909545" cy="30.92993982794035" fill="#ffffff"></circle><circle id="SvgjsCircle1183" r="0.4631811011043341" cx="176.5096823333929" cy="4.031820712921334" fill="#ffffff"></circle><circle id="SvgjsCircle1184" r="0.11474078737063441" cx="8.520116376111512" cy="131.1877150109451" fill="#ffffff"></circle><circle id="SvgjsCircle1185" r="0.2512611755608298" cx="414.6085462529801" cy="197.3340466524002" fill="#ffffff"></circle><circle id="SvgjsCircle1186" r="0.3235730282738694" cx="122.94078765854458" cy="4.624630241243637" fill="#ffffff"></circle><circle id="SvgjsCircle1187" r="0.6273747857978804" cx="315.67757430563313" cy="6.448738477938389" fill="#ffffff"></circle><circle id="SvgjsCircle1188" r="0.15659835826496046" cx="415.90327385728295" cy="78.64434035571115" fill="#ffffff"></circle><circle id="SvgjsCircle1189" r="0.4311867734177006" cx="74.64389753061356" cy="69.03229380661702" fill="#ffffff"></circle><circle id="SvgjsCircle1190" r="0.13569937482153102" cx="264.1143957394157" cy="46.707208152746766" fill="#ffffff"></circle></g></svg>
