<?xml version="1.0" encoding="utf-8"?>
<!DOCTYPE svg PUBLIC "-//W3C//DTD SVG 1.1//EN" "http://www.w3.org/Graphics/SVG/1.1/DTD/svg11.dtd">
<svg>
<path d="M143.145,517.94c26.671,0.842 43.522,-9.193 60.178,-33.011c22.739,-32.518 39.597,-73.232 52.196,-140.573c9.147,-48.893 3.897,-102.775 -7.627,-146.144c-12.317,-46.354 -26.888,-81.488 -50.65,-112.977c-12.629,-16.737 -31.472,-30.15 -36.181,-38.743c-3.71,-6.771 -6.303,-46.289 -6.303,-46.289c0,0 -4.109,39.785 -8.445,45.921c-5.594,7.92 -28.11,21.284 -43.849,37.065c-28.547,28.621 -55.443,76.406 -65.651,115.888c-9.141,35.352 -14.352,81.497 -6.57,139.722c7.955,59.518 41.36,122.158 53.841,143.162c14.86,25.007 31.625,35.112 59.061,35.979Z" />
<path d="M193.021,382.495c19.792,-6.546 35.366,13.445 50.423,33.258c20.334,26.757 36.612,74.987 38.329,116.181c1.305,31.326 1.146,45.844 -2.962,67.983c-4.231,22.803 -10.151,29.497 -11.428,30.237c-3.394,1.967 -10.431,1.657 -16.339,1.104c-17.801,-1.666 -24.051,-2.505 -26.266,-4.997c-1.878,-2.112 1.425,-22.011 -4.49,-47.776c-6.68,-29.101 -17.971,-45.704 -37.497,-60.997c-27.256,-21.347 -33.702,-13.221 -34.758,-20.051c-1.635,-10.569 19.985,-47.695 22.208,-63.476c2.615,-18.57 6.857,-46.199 22.78,-51.466Z" stroke="white" />
<path d="M93.197,379.021c-19.683,-6.961 -35.578,12.698 -50.953,32.191c-20.763,26.325 -38.532,72.993 -40.915,114.144c-1.812,31.293 -1.888,45.812 1.861,68.034c3.862,22.888 9.673,29.705 10.937,30.472c3.362,2.038 10.403,1.876 16.319,1.448c17.824,-1.292 24.087,-2 26.342,-4.444c1.911,-2.072 -1.068,-22.037 5.262,-47.674c7.15,-28.955 18.707,-45.318 38.478,-60.197c27.597,-20.771 33.911,-12.51 35.077,-19.316c1.805,-10.534 -19.211,-48.108 -21.177,-63.934c-2.315,-18.621 -5.396,-45.123 -21.231,-50.724Z" stroke="white" />
<path d="M128.383,111.703c20.33,7.021 27.709,39.369 16.469,72.192c-11.239,32.823 -36.87,53.77 -57.199,46.75c-20.329,-7.021 -27.709,-39.369 -16.469,-72.192c11.24,-32.823 36.87,-53.77 57.199,-46.75Z" fill="white" />
<path d="M132.016,1074.85c0,0 -3.044,-252.274 -27.833,-334.948c-24.654,-82.219 -59.814,-144.286 5.264,-185.328c41.598,-26.234 30.275,-26.207 71.227,-1.799c31.12,18.548 19.802,71.613 2.849,132.032c-9.831,35.037 -21.558,72.546 -28.003,107.232c-17.561,94.501 -23.504,282.811 -23.504,282.811Z" />
</svg>
