<?xml version="1.0" encoding="utf-8"?>
<!DOCTYPE svg PUBLIC "-//W3C//DTD SVG 1.1//EN" "http://www.w3.org/Graphics/SVG/1.1/DTD/svg11.dtd">
<svg id="SvgjsSvg1053" width="100%" height="100%" xmlns="http://www.w3.org/2000/svg" version="1.1" xmlns:xlink="http://www.w3.org/1999/xlink" xmlns:svgjs="http://svgjs.com/svgjs" viewBox="0 0 554.2222086588541 290.44443766276044"><defs id="SvgjsDefs1054"></defs><g id="SvgjsG1055"><circle id="SvgjsCircle1056" r="0.9898256311033026" cx="211.41042538008594" cy="138.77423241341637" fill="#ffffff"></circle><circle id="SvgjsCircle1057" r="0.17758901874663952" cx="137.8138005124544" cy="166.58311898706862" fill="#ffffff"></circle><circle id="SvgjsCircle1058" r="0.6703218012029566" cx="483.7544654684726" cy="54.77004694138214" fill="#ffffff"></circle><circle id="SvgjsCircle1059" r="0.9415908657219508" cx="307.83533675344876" cy="91.16798894649196" fill="#ffffff"></circle><circle id="SvgjsCircle1060" r="0.1000844168455283" cx="196.50958431744505" cy="76.59132880891997" fill="#ffffff"></circle><circle id="SvgjsCircle1061" r="0.9263784694683199" cx="408.4967188151753" cy="98.90236898395787" fill="#ffffff"></circle><circle id="SvgjsCircle1062" r="0.3839696711906027" cx="137.99792430867842" cy="215.54539270739946" fill="#ffffff"></circle><circle id="SvgjsCircle1063" r="0.5653752540557587" cx="235.67892403891517" cy="191.03465560252945" fill="#ffffff"></circle><circle id="SvgjsCircle1064" r="0.23031237665724869" cx="223.28613537565286" cy="266.32750199308475" fill="#ffffff"></circle><circle id="SvgjsCircle1065" r="0.8654460221061263" cx="387.73813018972294" cy="73.92191638080702" fill="#ffffff"></circle><circle id="SvgjsCircle1066" r="0.10780573107337074" cx="367.59657116241806" cy="224.3725338897416" fill="#ffffff"></circle><circle id="SvgjsCircle1067" r="0.8901210482772814" cx="350.60210676938493" cy="173.46796404791922" fill="#ffffff"></circle><circle id="SvgjsCircle1068" r="0.739778438713405" cx="354.159377806443" cy="272.12163999610823" fill="#ffffff"></circle><circle id="SvgjsCircle1069" r="0.20131001016137928" cx="195.0358280332262" cy="231.22718622818672" fill="#ffffff"></circle><circle id="SvgjsCircle1070" r="0.6065192093543917" cx="337.61079331036376" cy="264.4094207556135" fill="#ffffff"></circle><circle id="SvgjsCircle1071" r="0.45765909123276166" cx="263.8099474711743" cy="271.63462700682607" fill="#ffffff"></circle><circle id="SvgjsCircle1072" r="0.4814864108888037" cx="347.5867812792391" cy="101.43372466499075" fill="#ffffff"></circle><circle id="SvgjsCircle1073" r="0.4438739890524769" cx="27.892837879453438" cy="141.91070171469565" fill="#ffffff"></circle><circle id="SvgjsCircle1074" r="0.2720239719448618" cx="254.109330431718" cy="80.46636861713516" fill="#ffffff"></circle><circle id="SvgjsCircle1075" r="0.3498081290075254" cx="270.29991785567887" cy="83.33321099052274" fill="#ffffff"></circle><circle id="SvgjsCircle1076" r="0.49102505775514654" cx="372.45400352294456" cy="29.574855589198126" fill="#ffffff"></circle><circle id="SvgjsCircle1077" r="0.5950907155289855" cx="448.52186897917375" cy="71.7997967000648" fill="#ffffff"></circle><circle id="SvgjsCircle1078" r="0.8618122524248821" cx="343.0055455250684" cy="83.08474135652753" fill="#ffffff"></circle><circle id="SvgjsCircle1079" r="0.9119716683495551" cx="463.78290877799503" cy="2.772831217143259" fill="#ffffff"></circle><circle id="SvgjsCircle1080" r="0.13285565814041703" cx="252.55157010143878" cy="142.38482209009445" fill="#ffffff"></circle><circle id="SvgjsCircle1081" r="0.3252097748397006" cx="286.46721086006977" cy="237.12676210785673" fill="#ffffff"></circle><circle id="SvgjsCircle1082" r="0.6796477755403258" cx="437.56258632584013" cy="213.00278431301882" fill="#ffffff"></circle><circle id="SvgjsCircle1083" r="0.7018438795427121" cx="256.850569819601" cy="63.0630832908405" fill="#ffffff"></circle><circle id="SvgjsCircle1084" r="0.15171306399209947" cx="141.94721707810248" cy="59.72506415684555" fill="#ffffff"></circle><circle id="SvgjsCircle1085" r="0.4178023656302882" cx="36.43323618017536" cy="103.13056230299478" fill="#ffffff"></circle><circle id="SvgjsCircle1086" r="0.8701509146361202" cx="393.0180388140545" cy="123.35552845399852" fill="#ffffff"></circle><circle id="SvgjsCircle1087" r="0.2758540743581991" cx="151.48672039573464" cy="238.5161207700797" fill="#ffffff"></circle><circle id="SvgjsCircle1088" r="0.7510091335836957" cx="35.233952338092905" cy="251.98212788693" fill="#ffffff"></circle><circle id="SvgjsCircle1089" r="0.7369144238268137" cx="445.0159779215908" cy="157.7819526772154" fill="#ffffff"></circle><circle id="SvgjsCircle1090" r="0.8630972764211159" cx="31.952775044100072" cy="19.336887575512076" fill="#ffffff"></circle><circle id="SvgjsCircle1091" r="0.2107085726826829" cx="522.3526288652301" cy="253.84424863241608" fill="#ffffff"></circle><circle id="SvgjsCircle1092" r="0.6503405789531838" cx="255.05067632161945" cy="78.68873065462486" fill="#ffffff"></circle><circle id="SvgjsCircle1093" r="0.18141078197134597" cx="305.93957829716123" cy="288.7373294604197" fill="#ffffff"></circle><circle id="SvgjsCircle1094" r="0.2675804853528115" cx="124.58113666238621" cy="151.19081255056864" fill="#ffffff"></circle><circle id="SvgjsCircle1095" r="0.18995670601283537" cx="382.8414768747774" cy="51.868675873222564" fill="#ffffff"></circle><circle id="SvgjsCircle1096" r="0.9404314620047536" cx="514.3963669143307" cy="244.40362616817026" fill="#ffffff"></circle><circle id="SvgjsCircle1097" r="0.6100341388598702" cx="542.5577032698361" cy="74.83190276638712" fill="#ffffff"></circle><circle id="SvgjsCircle1098" r="0.9400048560191686" cx="100.04147933340148" cy="91.13829764181916" fill="#ffffff"></circle><circle id="SvgjsCircle1099" r="0.17035816503132667" cx="262.5107123008319" cy="37.911673317877835" fill="#ffffff"></circle><circle id="SvgjsCircle1100" r="0.3951503549729312" cx="255.5877813375392" cy="65.34721354882569" fill="#ffffff"></circle><circle id="SvgjsCircle1101" r="0.7626329322665325" cx="450.47770324665817" cy="111.39316730089294" fill="#ffffff"></circle><circle id="SvgjsCircle1102" r="0.7225903056508034" cx="493.1232390002824" cy="14.075907381524013" fill="#ffffff"></circle><circle id="SvgjsCircle1103" r="0.7494272313481245" cx="331.938204710276" cy="238.5372612284777" fill="#ffffff"></circle><circle id="SvgjsCircle1104" r="0.5843151568219269" cx="308.3593806653382" cy="165.1787363593036" fill="#ffffff"></circle><circle id="SvgjsCircle1105" r="0.8542467759241273" cx="309.1833766453445" cy="70.81560635734839" fill="#ffffff"></circle><circle id="SvgjsCircle1106" r="0.3805403333213049" cx="62.73220052295908" cy="11.295428180135673" fill="#ffffff"></circle><circle id="SvgjsCircle1107" r="0.20260164951822346" cx="33.75115912253482" cy="251.03903394188134" fill="#ffffff"></circle><circle id="SvgjsCircle1108" r="0.531983006332101" cx="371.90675398905194" cy="177.6607130533722" fill="#ffffff"></circle><circle id="SvgjsCircle1109" r="0.41396125592043964" cx="158.52965808524903" cy="38.376592463346256" fill="#ffffff"></circle><circle id="SvgjsCircle1110" r="0.9715595523222798" cx="82.8383730044672" cy="226.60028828649172" fill="#ffffff"></circle><circle id="SvgjsCircle1111" r="0.8559587771069398" cx="327.2808229484629" cy="106.4075403708039" fill="#ffffff"></circle><circle id="SvgjsCircle1112" r="0.6549712953398683" cx="4.75340540713559" cy="19.07492211680152" fill="#ffffff"></circle><circle id="SvgjsCircle1113" r="0.31761549908823067" cx="117.06510700145724" cy="207.1710521924104" fill="#ffffff"></circle><circle id="SvgjsCircle1114" r="0.5873139975371149" cx="116.41146185778486" cy="134.68350094979246" fill="#ffffff"></circle><circle id="SvgjsCircle1115" r="0.1468280748415858" cx="110.33687098086457" cy="202.80743574190188" fill="#ffffff"></circle><circle id="SvgjsCircle1116" r="0.5199725186827632" cx="437.99617219616323" cy="243.70330242484266" fill="#ffffff"></circle><circle id="SvgjsCircle1117" r="0.7062687307063984" cx="192.5522303349252" cy="44.027079849967244" fill="#ffffff"></circle><circle id="SvgjsCircle1118" r="0.9955471968119011" cx="23.26130190496754" cy="79.90170323290796" fill="#ffffff"></circle><circle id="SvgjsCircle1119" r="0.669238648872342" cx="167.75269998402638" cy="94.25867774475851" fill="#ffffff"></circle><circle id="SvgjsCircle1120" r="0.11719049695790719" cx="388.1774642322028" cy="119.30215971474718" fill="#ffffff"></circle><circle id="SvgjsCircle1121" r="0.2046246763980628" cx="442.1498448534425" cy="62.867459973889886" fill="#ffffff"></circle><circle id="SvgjsCircle1122" r="0.6591789972829025" cx="80.5624167135078" cy="266.761835381095" fill="#ffffff"></circle><circle id="SvgjsCircle1123" r="0.5551259452116296" cx="63.669277416568924" cy="63.58002073218915" fill="#ffffff"></circle><circle id="SvgjsCircle1124" r="0.5119179011002847" cx="220.84552648928155" cy="144.34020355188503" fill="#ffffff"></circle><circle id="SvgjsCircle1125" r="0.3880747742465035" cx="387.762006173419" cy="151.61621090033233" fill="#ffffff"></circle><circle id="SvgjsCircle1126" r="0.4631199879915435" cx="487.6934713982632" cy="214.83042265831796" fill="#ffffff"></circle><circle id="SvgjsCircle1127" r="0.7791327731557343" cx="281.2127785535771" cy="7.2077800444769995" fill="#ffffff"></circle><circle id="SvgjsCircle1128" r="0.9388048452041933" cx="123.7165438424732" cy="242.98767489758498" fill="#ffffff"></circle><circle id="SvgjsCircle1129" r="0.3475632508163366" cx="173.54477844123872" cy="82.18113270359018" fill="#ffffff"></circle><circle id="SvgjsCircle1130" r="0.9359027468833975" cx="489.37323489689754" cy="211.91600880760825" fill="#ffffff"></circle><circle id="SvgjsCircle1131" r="0.3596270640902353" cx="470.3671128307711" cy="56.45975066071865" fill="#ffffff"></circle><circle id="SvgjsCircle1132" r="0.08608077231700761" cx="301.8638527308112" cy="89.4064375401365" fill="#ffffff"></circle><circle id="SvgjsCircle1133" r="0.3728336735945265" cx="188.44979190915802" cy="8.679504407551024" fill="#ffffff"></circle><circle id="SvgjsCircle1134" r="0.7051349287087988" cx="26.8416543771116" cy="145.9766345447799" fill="#ffffff"></circle><circle id="SvgjsCircle1135" r="0.6954826031965777" cx="275.9854869121079" cy="284.26548620523516" fill="#ffffff"></circle><circle id="SvgjsCircle1136" r="0.16996044334201887" cx="275.8376535948964" cy="10.62913551751951" fill="#ffffff"></circle><circle id="SvgjsCircle1137" r="0.5324597454170132" cx="486.0340696487837" cy="214.76472155026073" fill="#ffffff"></circle><circle id="SvgjsCircle1138" r="0.5883326925676032" cx="251.24379315072932" cy="221.25655790962097" fill="#ffffff"></circle><circle id="SvgjsCircle1139" r="0.05617224028736724" cx="384.5481687769523" cy="220.31238166135083" fill="#ffffff"></circle><circle id="SvgjsCircle1140" r="0.47347978833764437" cx="212.75251977877815" cy="146.12030875840702" fill="#ffffff"></circle><circle id="SvgjsCircle1141" r="0.4361100266534307" cx="539.1096020867665" cy="40.24010335571394" fill="#ffffff"></circle><circle id="SvgjsCircle1142" r="0.335830195025183" cx="182.47412170535245" cy="186.81002638267083" fill="#ffffff"></circle><circle id="SvgjsCircle1143" r="0.8554895109354337" cx="494.63936290235404" cy="17.298908163166864" fill="#ffffff"></circle><circle id="SvgjsCircle1144" r="0.12687031853169226" cx="444.8362551383227" cy="90.61682212604454" fill="#ffffff"></circle><circle id="SvgjsCircle1145" r="0.6401702297406725" cx="48.54327215859776" cy="54.21683401230556" fill="#ffffff"></circle><circle id="SvgjsCircle1146" r="0.978581269730822" cx="230.05993280511277" cy="107.7263133664599" fill="#ffffff"></circle><circle id="SvgjsCircle1147" r="0.8747250164374029" cx="384.69708066598463" cy="69.07806572328151" fill="#ffffff"></circle><circle id="SvgjsCircle1148" r="0.05088794431824744" cx="533.0252563770391" cy="93.74266830046805" fill="#ffffff"></circle><circle id="SvgjsCircle1149" r="0.42157800192748546" cx="187.311269062685" cy="275.674999303001" fill="#ffffff"></circle><circle id="SvgjsCircle1150" r="0.2170959151643544" cx="44.906659534825536" cy="259.97222716472663" fill="#ffffff"></circle><circle id="SvgjsCircle1151" r="0.5532562302295256" cx="114.60039684840906" cy="258.9623301982641" fill="#ffffff"></circle><circle id="SvgjsCircle1152" r="0.09738022453597801" cx="404.847641976237" cy="119.31912628327726" fill="#ffffff"></circle><circle id="SvgjsCircle1153" r="0.38346936198638154" cx="390.35025502503663" cy="140.6969956507809" fill="#ffffff"></circle><circle id="SvgjsCircle1154" r="0.548735309123016" cx="494.17499219886" cy="269.26660452699105" fill="#ffffff"></circle><circle id="SvgjsCircle1155" r="0.9651616861051304" cx="296.81447766281184" cy="243.47260865068714" fill="#ffffff"></circle><circle id="SvgjsCircle1156" r="0.5358328876014876" cx="464.4098181335766" cy="200.60497637184653" fill="#ffffff"></circle><circle id="SvgjsCircle1157" r="0.708797627712973" cx="528.3685630429572" cy="61.75812289252147" fill="#ffffff"></circle><circle id="SvgjsCircle1158" r="0.878679595701118" cx="189.73621733438227" cy="144.25743342491577" fill="#ffffff"></circle><circle id="SvgjsCircle1159" r="0.9695301234507794" cx="128.23009220789442" cy="220.16187377491525" fill="#ffffff"></circle><circle id="SvgjsCircle1160" r="0.31505786835912897" cx="381.95862944096774" cy="123.66835831788117" fill="#ffffff"></circle><circle id="SvgjsCircle1161" r="0.4752248187834187" cx="422.74314950639007" cy="233.52022731352156" fill="#ffffff"></circle><circle id="SvgjsCircle1162" r="0.41446485414834683" cx="524.7281350665779" cy="68.01532336426892" fill="#ffffff"></circle><circle id="SvgjsCircle1163" r="0.4390948160223262" cx="334.56877709759846" cy="210.18154041324502" fill="#ffffff"></circle><circle id="SvgjsCircle1164" r="0.4510252401585825" cx="366.4472849086507" cy="192.37271950697715" fill="#ffffff"></circle><circle id="SvgjsCircle1165" r="0.41023368447993597" cx="270.10916415808276" cy="141.72620976272722" fill="#ffffff"></circle><circle id="SvgjsCircle1166" r="0.25541294068516557" cx="60.300060268949345" cy="162.3091842087537" fill="#ffffff"></circle><circle id="SvgjsCircle1167" r="0.7838040633146132" cx="514.2332902373341" cy="139.64057595506793" fill="#ffffff"></circle><circle id="SvgjsCircle1168" r="0.46730581596537146" cx="185.0895985000432" cy="198.06601866503485" fill="#ffffff"></circle><circle id="SvgjsCircle1169" r="0.5870247466659099" cx="367.4547226963438" cy="155.34088330738018" fill="#ffffff"></circle><circle id="SvgjsCircle1170" r="0.3343787705131517" cx="307.62802730576317" cy="183.42411559505283" fill="#ffffff"></circle><circle id="SvgjsCircle1171" r="0.24412049213923842" cx="517.2706209209787" cy="214.4878888380667" fill="#ffffff"></circle><circle id="SvgjsCircle1172" r="0.5191315444624984" cx="355.150970114863" cy="7.9455042861705305" fill="#ffffff"></circle><circle id="SvgjsCircle1173" r="0.2546765490464194" cx="362.1988248287931" cy="107.29630974312064" fill="#ffffff"></circle><circle id="SvgjsCircle1174" r="0.1276760980755795" cx="135.12175220926446" cy="258.1666023616337" fill="#ffffff"></circle><circle id="SvgjsCircle1175" r="0.8361620634268043" cx="339.2543516984702" cy="53.52678799379868" fill="#ffffff"></circle><circle id="SvgjsCircle1176" r="0.6242159115664158" cx="156.130554839347" cy="60.926993954203255" fill="#ffffff"></circle><circle id="SvgjsCircle1177" r="0.4720818733224141" cx="110.18112646860679" cy="92.68466968507016" fill="#ffffff"></circle><circle id="SvgjsCircle1178" r="0.9183926581494799" cx="366.14930829090105" cy="193.52767164656592" fill="#ffffff"></circle><circle id="SvgjsCircle1179" r="0.8441256579981485" cx="198.48224472048145" cy="122.48445706810949" fill="#ffffff"></circle><circle id="SvgjsCircle1180" r="0.12436777046140367" cx="51.55634405069287" cy="245.68402295555268" fill="#ffffff"></circle><circle id="SvgjsCircle1181" r="0.8777556194287766" cx="273.1757714099366" cy="118.57556796289525" fill="#ffffff"></circle><circle id="SvgjsCircle1182" r="0.8851682443962184" cx="78.39074644128308" cy="233.6411240479099" fill="#ffffff"></circle><circle id="SvgjsCircle1183" r="0.9003776491143214" cx="84.88162282351314" cy="133.4894729284411" fill="#ffffff"></circle><circle id="SvgjsCircle1184" r="0.08903939701217775" cx="255.18600476525492" cy="33.08653400041885" fill="#ffffff"></circle><circle id="SvgjsCircle1185" r="0.817841524134613" cx="14.55687549345002" cy="52.094340826460225" fill="#ffffff"></circle><circle id="SvgjsCircle1186" r="0.35536700409279703" cx="81.1442966574379" cy="154.41959363822193" fill="#ffffff"></circle><circle id="SvgjsCircle1187" r="0.14402096551870106" cx="482.4445317753883" cy="281.5124462627632" fill="#ffffff"></circle><circle id="SvgjsCircle1188" r="0.8917517323885354" cx="501.23112015015096" cy="158.12692712601745" fill="#ffffff"></circle><circle id="SvgjsCircle1189" r="0.47757905695867536" cx="224.51843458083738" cy="49.18987816392964" fill="#ffffff"></circle><circle id="SvgjsCircle1190" r="0.543767413291066" cx="83.28541998768047" cy="55.41404111953909" fill="#ffffff"></circle><circle id="SvgjsCircle1191" r="0.6501624064206682" cx="408.09264637028997" cy="97.50146794091872" fill="#ffffff"></circle><circle id="SvgjsCircle1192" r="0.9915728684574205" cx="542.0322913099147" cy="153.36940314896478" fill="#ffffff"></circle><circle id="SvgjsCircle1193" r="0.25317804176785974" cx="299.14741039645276" cy="285.7561946454649" fill="#ffffff"></circle><circle id="SvgjsCircle1194" r="0.2799945364669354" cx="310.9276412286771" cy="120.32388981005579" fill="#ffffff"></circle><circle id="SvgjsCircle1195" r="0.5156976963076914" cx="154.92142043668497" cy="202.46392020225042" fill="#ffffff"></circle><circle id="SvgjsCircle1196" r="0.9751906595094005" cx="410.44800769747286" cy="136.90937014229132" fill="#ffffff"></circle><circle id="SvgjsCircle1197" r="0.8526509078950645" cx="288.6587830994263" cy="255.01600501805459" fill="#ffffff"></circle><circle id="SvgjsCircle1198" r="0.0556255768481053" cx="516.7128723953816" cy="122.25369625396473" fill="#ffffff"></circle><circle id="SvgjsCircle1199" r="0.4424524744243632" cx="9.61827457859291" cy="186.40424353154063" fill="#ffffff"></circle><circle id="SvgjsCircle1200" r="0.1137267378041405" cx="418.23178567630544" cy="98.93363184136426" fill="#ffffff"></circle><circle id="SvgjsCircle1201" r="0.5153824030549639" cx="551.3963043518895" cy="284.531010933685" fill="#ffffff"></circle><circle id="SvgjsCircle1202" r="0.8115447304351113" cx="452.4955631082095" cy="135.3667324466414" fill="#ffffff"></circle><circle id="SvgjsCircle1203" r="0.33389654397400637" cx="307.7824709014854" cy="144.29111589526937" fill="#ffffff"></circle><circle id="SvgjsCircle1204" r="0.9708316704175362" cx="529.9970433481075" cy="112.93600069082773" fill="#ffffff"></circle><circle id="SvgjsCircle1205" r="0.07690039614480391" cx="457.5893084009123" cy="27.481705181240265" fill="#ffffff"></circle><circle id="SvgjsCircle1206" r="0.6151546009272996" cx="397.11282895429474" cy="128.24183747127373" fill="#ffffff"></circle><circle id="SvgjsCircle1207" r="0.4058462686609414" cx="386.9993764982011" cy="94.05017996311348" fill="#ffffff"></circle><circle id="SvgjsCircle1208" r="0.4989714917805656" cx="230.4844658948427" cy="149.80119370314716" fill="#ffffff"></circle><circle id="SvgjsCircle1209" r="0.9971946208790344" cx="453.371339907956" cy="3.8207954908102817" fill="#ffffff"></circle><circle id="SvgjsCircle1210" r="0.661280202110398" cx="6.057377291010511" cy="228.95625113374894" fill="#ffffff"></circle><circle id="SvgjsCircle1211" r="0.36242513430891526" cx="476.2730608158411" cy="36.28830415749851" fill="#ffffff"></circle><circle id="SvgjsCircle1212" r="0.314983061040394" cx="283.29842992079904" cy="199.097514159654" fill="#ffffff"></circle><circle id="SvgjsCircle1213" r="0.6648383677016343" cx="7.3985617489048545" cy="196.05863349417172" fill="#ffffff"></circle><circle id="SvgjsCircle1214" r="0.11784444964234049" cx="304.7190542576899" cy="54.677674152261304" fill="#ffffff"></circle><circle id="SvgjsCircle1215" r="0.11545290748664587" cx="6.5953010813409945" cy="95.50608887867199" fill="#ffffff"></circle></g></svg>
